<svg width="1398" height="553" viewBox="0 0 1398 553" fill="none" xmlns="http://www.w3.org/2000/svg">
<path d="M0.5 16L168.5 1L163 8.5L162.5 19.5L422 115H624V78H741.5L753.5 84.5L763.5 104.5L780 111.5L795 130L806.5 135L809 143.5L828 158L837.5 160.5L854 175L861.5 196.5L868.5 205L872 233L881 250L891.5 260.5L898.5 262.5L906 272.5L914.5 278.5L940 290.5L949 291.5L967 305.5H979.5L991.5 290.5L1001.5 272.5V260.5L1011 245L1030 242L1036.5 234L1052.5 241L1086.5 243.5H1098L1111 262.5L1125 269L1129 276.5L1141 284.5L1143.5 290.5L1150.5 296L1153 309L1160 318L1161.5 329.5L1169.5 336.5L1176.5 361L1183.5 369L1192.5 372L1207.5 401.5H1211.5L1216 408.5L1231.5 416.5L1232.5 440L1237 442L1238 454.5L1237 462L1240.5 467.5L1250.5 476.5L1254.5 485V498.5L1261 503L1260 507.5L1282.5 512.5L1290 521L1314.5 528.5L1318.5 533.5L1354.5 535.5L1362.5 539L1377.5 552.5H1381L1383 546L1397.5 543.5" stroke="black"/>
</svg>
