<svg width="3240" height="2795" viewBox="0 0 3240 2795" fill="none" xmlns="http://www.w3.org/2000/svg">
<path d="M491.5 1352.5L503 1378.5V1393.5L506 1402L511 1400.5V1414.5V1419.5L516.5 1431.5L518.5 1437L524.5 1439.5L528.5 1456L535 1460.5L537 1465L542 1469L546 1475.5L542 1497L554.5 1507L567.5 1528V1534.5V1541.5L576 1549L578 1554L584 1557.5L587 1575.5L585.5 1584L601 1595L605 1611.5V1624L610.5 1630V1643L619.5 1648V1652L630.5 1654L634.5 1659L641 1661L644 1665.5L651.5 1669L658 1671.5H660.5L677 1687.5L680 1693.5L685.5 1696.5L689 1706L697 1711.5L702 1714V1718L707.5 1725L712 1729.5H716.5L719 1734.5V1738.5L724 1741L726 1746L722.5 1757.5V1763L724 1765V1772.5L722.5 1776L728 1783.5L719 1792.5V1801.5L722.5 1804L727 1803L731 1798H736V1806.5L731 1811.5L727 1814.5L722.5 1809.5L719 1809.5L705.5 1798H658L660.5 1804L670.5 1809.5L680 1820.5L690.5 1826L694.5 1834.5V1843.5L707.5 1850.5H719L726 1859.5L736 1863L744.5 1868L747 1876.5H755.5L762.5 1882L769 1876.5L776.5 1879L781 1876.5L785.5 1859.5H781L785.5 1846.5L786 1851.5H792L796 1859.5L794 1865L786 1876.5L792 1884.5V1890L829 1918.5L840 1920L861.5 1949.5L864.5 1991.5L855 2014L853.5 2025.5L872.5 2037.5H882.5L891 2048L894.5 2059L912.5 2070L924.5 2077L927.5 2080L933.5 2082L937.5 2087L946.5 2095L955.5 2105.5L965.5 2116.5L983.5 2126L996.5 2145.5L1000 2169L1010 2177.5L1028.5 2165.5L1045 2154.5L1048.5 2135.5L1041 2124L1028.5 2116.5L1026 2104L1018.5 2095V2087L1007 2090V2080L996.5 2073.5L991 2066.5H983.5V2080L977.5 2077L962.5 2070L960 2059L954.5 2045.5L958 2037.5L962.5 2025.5L954.5 2014L946.5 2004L937.5 1978.5L927.5 1970.5L924.5 1960.5L918 1956.5L916 1939.5V1927.5L912.5 1912.5L907 1897.5L902.5 1895L900 1884.5L884 1870.5L882.5 1882L891 1893H884L876 1882L878.5 1870.5L870 1865L872.5 1854L857.5 1846.5L853.5 1837.5L849 1828L843.5 1817L829 1809.5L816 1794L814.5 1767L809.5 1759.5V1748L801.5 1746L792 1738.5L784.5 1718.5L779.5 1714L776.5 1718L772 1706L764.5 1711.5L762.5 1709L760 1693.5L753.5 1684L755.5 1681L715 1644.5L705.5 1642L702 1635.5V1630.5L694.5 1625.5L689 1617L683 1606L685.5 1599V1588.5L683 1574.5L680 1549L671.5 1539.5L667.5 1527.5L669 1507.5L673.5 1488.5V1481.5L685.5 1478.5L697 1486L715 1499L727 1501L733 1496V1488.5L753.5 1501L760 1514.5L779.5 1520.5L782 1518L788 1523H792.5L798.5 1531L791 1553L796.5 1574.5L808 1585L809.5 1599L817.5 1609.5L819 1630.5L826 1637L829 1648L842.5 1663.5V1669L841 1674.5H850L858.5 1698L868 1714L877 1727L890 1744L903.5 1751L911 1763L918.5 1768.5L920 1776L943 1789H953.5H966.5L970.5 1796L966.5 1803V1813L968 1825L977 1837.5L994 1851.5L1010.5 1854L1015 1859.5L1018 1875L1023.5 1882L1030.5 1884.5H1035L1041.5 1882L1059.5 1902L1069 1912.5V1920L1065.5 1918.5L1050 1936L1048.5 1949.5L1064 1962L1075 1965.5L1083 1962H1088V1971.5L1110 1992L1126.5 1997L1140.5 2009.5L1148.5 2017.5L1152 2027.5V2039L1166.5 2055.5H1177.5V2064L1198.5 2080L1222 2101L1244.5 2135.5L1276 2171L1303 2201L1309 2228.5L1326 2273L1342.5 2285V2312.5L1323 2331L1309 2369L1337 2417.5L1384.5 2460.5L1427.5 2479.5L1460 2517.5L1571 2547L1618 2580L1708.5 2625L1792 2649L1864 2691.5H1898L1963 2712.5L2033.5 2682L2099 2667.5L2152.5 2700.5L2193 2735.5L2248 2793.5L2255 2782L2253 2770L2255 2762L2261.5 2754L2251.5 2740L2286 2681H2374.5V2659L2354.5 2633.5L2306 2596.5H2336V2551.5L2464 2551.5L2491 2539.5L2514.5 2503L2554.5 2539.5L2633.5 2311L2606 2285L2540.5 2271.5L2404 2300.5L2377.5 2330L2372 2398.5L2352.5 2445L2320.5 2473L2150.5 2518.5L2090 2530.5L2061 2502.5L1987 2469L1888 2310.5L1863.5 2234L1857 2196L1863.5 2181V2140.5V2093L1870.5 2044V2009.5V1992L1876 1989L1898 1978.5V1956.5L1907 1936L1898 1926L1888.5 1902L1886.5 1884.5L1879 1870V1858H1886.5L1890.5 1828L1899.5 1806L1893 1799L1886.5 1791L1895.5 1790L1901 1793L1906.5 1797L1912 1785L1916 1774.5L1918 1771L1928.5 1769L1933.5 1764.5V1753.5L1928.5 1753.5H1935.5H1940V1749.5L1952.5 1751.5L1959 1749.5L1960.5 1744.5L1952.5 1737.5L1944.5 1735V1730L1942 1724.5L1948 1727L1949.5 1730L1957 1732.5L1960.5 1730V1727L1964.5 1731L1969 1728.5H1972V1732.5L1973.5 1735L1979.5 1732.5L1986.5 1735L2028 1709.5L2052 1689.5L2048 1686L2050.5 1680.5L2056.5 1679.5L2071 1666.5L2069.5 1659.5L2060 1650V1637.5L2068 1638.5L2077.5 1635.5L2082 1638.5L2078 1651L2087.5 1648L2092.5 1650L2193 1637.5L2336 1684L2404 1681L2569 1600.5L2828 1655L2935.5 1897L3039.5 1992L3073.5 1858L3004 1666.5L2976 1577L2991 1495.5L3047 1418.5L3127.5 1366.5L3149 1326L3207.5 1305L3239.5 1264.5V19L1 0.5L51 249L15.5 536.5L51 668.5L15.5 758.5L51 811.5L63.5 888.5L147 980.5L158.5 1016V1038L182 1055.5H194.5L201.5 1069L194.5 1084.5L189 1088L194.5 1117L235 1160.5L264 1188.5V1202.5L275.5 1210.5L281.5 1245.5L290.5 1262.5H324.5L353 1270.5L370.5 1281.5L394 1299H420.5L428.5 1322.5H438.5L443.5 1313L456 1326.5L470 1340L491.5 1352.5Z" stroke="black"/>
</svg>
