<svg width="3240" height="2795" viewBox="0 0 3240 2795" fill="none" xmlns="http://www.w3.org/2000/svg">
<path d="M470 1340L456 1326.5L443.5 1313L438.5 1322.5H428.5L420.5 1299H394L370.5 1281.5L353 1270.5L324.5 1262.5H290.5L281.5 1245.5L275.5 1210.5L264 1202.5V1188.5L235 1160.5L194.5 1117L189 1088L194.5 1084.5L201.5 1069L194.5 1055.5H182L158.5 1038V1016L147 980.5L63.5 888.5L51 811.5L15.5 758.5L51 668.5L15.5 536.5L51 249L1 0.5L3239.5 19V1264.5L3207.5 1305L3149 1326L3127.5 1366.5L3047 1418.5L2991 1495.5L2976 1577L3004 1666.5L3073.5 1858L3039.5 1992L2935.5 1897L2828 1655L2569 1600.5L2404 1681L2336 1684L2193 1637.5L2092.5 1650L2087.5 1648L2078 1651L2082 1638.5L2077.5 1635.5L2068 1638.5L2060 1637.5V1650L2069.5 1659.5L2071 1666.5L2056.5 1679.5L2050.5 1680.5L2048 1686L2052 1689.5L2028 1709.5L1986.5 1735L1979.5 1732.5L1973.5 1735L1972 1732.5V1728.5H1969L1964.5 1731L1960.5 1727V1730L1957 1732.5L1949.5 1730L1948 1727L1942 1724.5L1944.5 1730V1735L1952.5 1737.5L1960.5 1744.5L1959 1749.5L1952.5 1751.5L1940 1753.5V1749.5H1935.5H1928.5L1933.5 1753.5V1764.5L1928.5 1769L1918 1771L1916 1774.5L1912 1785L1906.5 1797L1901 1793L1895.5 1790L1886.5 1791L1893 1799L1899.5 1806L1890.5 1828L1886.5 1858H1879V1870L1886.5 1884.5L1888.5 1902L1898 1926L1907 1936L1898 1956.5V1978.5L1876 1989L1870.5 1992V2009.5V2044L1863.5 2093V2140.5V2181L1857 2196L1863.5 2234L1888 2310.5L1987 2469L2061 2502.5L2090 2530.5L2150.5 2518.5L2320.5 2473L2352.5 2445L2372 2398.5L2377.5 2330L2404 2300.5L2540.5 2271.5L2606 2285L2633.5 2311L2554.5 2539.5L2514.5 2503L2491 2539.5L2464 2551.5H2336V2596.5H2306L2354.5 2633.5L2374.5 2659V2681H2286L2251.5 2740L2261.5 2754L2255 2762L2253 2770L2255 2782L2248 2793.5L2193 2735.5L2152.5 2700.5L2099 2667.5L2033.5 2682L1963 2712.5L1898 2691.5H1864L1792 2649L1708.5 2625L1618 2580L1571 2547L1460 2517.5L1427.5 2479.5L1384.5 2460.5L1337 2417.5L1309 2369L1323 2331L1342.5 2312.5V2285L1326 2273L1309 2228.5L1303 2201L1276 2171L1244.5 2135.5L1222 2101L1198.5 2080L1177.5 2064V2055.5H1166.5L1152 2039V2027.5L1148.5 2017.5L1140.5 2009.5L1126.5 1997L1110 1992L1088 1971.5V1962H1083L1075 1965.5L1064 1962L1048.5 1949.5L1050 1936L1065.5 1918.5L1069 1920V1912.5L1059.5 1902L1041.5 1882L1035 1884.5H1030.5L1023.5 1882L1018 1875L1015 1859.5L1010.5 1854L994 1851.5L977 1837.5L968 1825L966.5 1813V1803L970.5 1796L966.5 1789H953.5H943L920 1776L918.5 1768.5L911 1763L903.5 1751L890 1744L877 1727L868 1714L858.5 1698L850 1674.5H841L842.5 1669V1663.5L829 1648L826 1637L819 1630.5L817.5 1609.5L809.5 1599L808 1585L796.5 1574.5L791 1553L798.5 1531L792.5 1523H788L782 1518L779.5 1520.5L760 1514.5L753.5 1501L733 1488.5V1496L727 1501L715 1499L697 1486L685.5 1478.5L673.5 1481.5V1488.5L669 1507.5L667.5 1527.5L671.5 1539.5L680 1549L683 1574.5L685.5 1588.5V1599L683 1606L689 1617L694.5 1625.5L702 1630.5V1635.5L705.5 1642L715 1644.5L755.5 1681L753.5 1684L760 1693.5L762.5 1709L764.5 1711.5L772 1706L776.5 1718L779.5 1714L784.5 1718.5L792 1738.5L801.5 1746L809.5 1748V1759.5L814.5 1767L816 1794L829 1809.5L843.5 1817L849 1828L853.5 1837.5L857.5 1846.5L872.5 1854L870 1865L878.5 1870.5L876 1882L884 1893H891L882.5 1882L884 1870.5L900 1884.5L902.5 1895L907 1897.5L912.5 1912.5L916 1927.5V1939.5L918 1956.5L924.5 1960.5L927.5 1970.5L937.5 1978.5L946.5 2004L954.5 2014L962.5 2025.5L958 2037.5L954.5 2045.5L960 2059L962.5 2070L977.5 2077L983.5 2080V2066.5H991L996.5 2073.5L1007 2080V2090L1018.5 2087V2095L1026 2104L1028.5 2116.5L1041 2124L1048.5 2135.5L1045 2154.5L1028.5 2165.5L1010 2177.5L1000 2169L996.5 2145.5L983.5 2126L965.5 2116.5L955.5 2105.5L946.5 2095L937.5 2087L933.5 2082L927.5 2080L924.5 2077L912.5 2070L894.5 2059L891 2048H882.5L872.5 2037.5L853.5 2025.5L855 2014L864.5 1991.5L861.5 1949.5L840 1920L829 1918.5L792 1890V1884.5L786 1876.5L794 1865L796 1859.5H792L786 1851.5L785.5 1846.5H781L785.5 1859.5L781 1876.5L776.5 1879L769 1876.5L762.5 1882H755.5L747 1876.5L744.5 1868L736 1863L726 1859.5L719 1850.5H707.5L694.5 1843.5V1834.5L690.5 1826L680 1820.5L670.5 1809.5L660.5 1804L658 1798H705.5L719 1809.5L722.5 1814.5L727 1811.5L731 1806.5H736V1798H731L727 1803L722.5 1804L719 1801.5V1792.5L728 1783.5L722.5 1776L724 1772.5V1765L722.5 1763V1757.5L726 1746L724 1741L719 1738.5V1734.5L716.5 1729.5H712L707.5 1725L702 1718V1714L697 1711.5L689 1706L685.5 1696.5L680 1693.5L677 1687.5L660.5 1671.5H658L651.5 1669L644 1665.5L641 1661L634.5 1659L630.5 1654L619.5 1652V1648L610.5 1643V1630L605 1624V1611.5L601 1595L585.5 1584L587 1575.5L584 1557.5L578 1554L576 1549L567.5 1541.5V1534.5V1528L554.5 1507L542 1497L546 1475.5L542 1469L537 1465L535 1460.5L528.5 1456L524.5 1439.5L518.5 1437L516.5 1431.5L511 1419.5V1414.5V1400.5L506 1402L503 1393.5V1378.5L491.5 1352.5L470 1340Z" stroke="black"/>
</svg>
