<svg width="1947" height="1332" viewBox="0 0 1947 1332" fill="none" xmlns="http://www.w3.org/2000/svg">
<path d="M324 360L310 346.5L297.5 333L292.5 342.5H282.5L274.5 319H248L224.5 301.5L207 290.5L178.5 282.5H144.5L135.5 265.5L129.5 230.5L118 222.5V208.5L89 180.5L48.5 137L43 108L48.5 104.5L55.5 89L48.5 75.5H36L12.5 58V36L1 0.5H1946.5V670L1941.5 668L1932 671L1936 658.5L1931.5 655.5L1922 658.5L1914 657.5V670L1923.5 679.5L1925 686.5L1910.5 699.5L1904.5 700.5L1902 706L1906 709.5L1882 729.5L1840.5 755L1833.5 752.5L1827.5 755L1826 752.5V748.5H1823L1818.5 751L1814.5 747V750L1811 752.5L1803.5 750L1802 747L1796 744.5L1798.5 750V755L1806.5 757.5L1814.5 764.5L1813 769.5L1806.5 771.5L1794 773.5V769.5H1789.5H1782.5L1787.5 773.5V784.5L1782.5 789L1772 791L1770 794.5L1766 805L1760.5 817L1755 813L1749.5 810L1740.5 811L1747 819L1753.5 826L1744.5 848L1740.5 878H1733V890L1740.5 904.5L1742.5 922L1752 946L1761 956L1752 976.5V998.5L1730 1009L1724.5 1012V1029.5V1064L1717.5 1113V1160.5V1201L1711 1216L1717.5 1254L1724.5 1331H1288.5H1177L1173.5 1294.5L1163 1248.5L1157 1221L1130 1191L1098.5 1155.5L1076 1121L1052.5 1100L1031.5 1084V1075.5H1020.5L1006 1059V1047.5L1002.5 1037.5L994.5 1029.5L980.5 1017L964 1012L942 991.5V982H937L929 985.5L918 982L902.5 969.5L904 956L919.5 938.5L923 940V932.5L913.5 922L895.5 902L889 904.5H884.5L877.5 902L872 895L869 879.5L864.5 874L848 871.5L831 857.5L822 845L820.5 833V823L824.5 816L820.5 809H807.5H797L774 796L772.5 788.5L765 783L757.5 771L744 764L731 747L722 734L712.5 718L704 694.5H695L696.5 689V683.5L683 668L680 657L673 650.5L671.5 629.5L663.5 619L662 605L650.5 594.5L645 573L652.5 551L646.5 543H642L636 538L633.5 540.5L614 534.5L607.5 521L587 508.5V516L581 521L569 519L551 506L539.5 498.5L527.5 501.5V508.5L523 527.5L521.5 547.5L525.5 559.5L534 569L537 594.5L539.5 608.5V619L537 626L543 637L548.5 645.5L556 650.5V655.5L559.5 662L569 664.5L609.5 701L607.5 704L614 713.5L616.5 729L618.5 731.5L626 726L630.5 738L633.5 734L638.5 738.5L646 758.5L655.5 766L663.5 768V779.5L668.5 787L670 814L683 829.5L697.5 837L703 848L707.5 857.5L711.5 866.5L726.5 874L724 885L732.5 890.5L730 902L738 913H745L736.5 902L738 890.5L754 904.5L756.5 915L761 917.5L766.5 932.5L770 947.5V959.5L772 976.5L778.5 980.5L781.5 990.5L791.5 998.5L800.5 1024L808.5 1034L816.5 1045.5L812 1057.5L808.5 1065.5L814 1079L816.5 1090L831.5 1097L837.5 1100V1086.5H845L850.5 1093.5L861 1100V1110L872.5 1107V1115L880 1124L882.5 1136.5L895 1144L902.5 1155.5L899 1174.5L882.5 1185.5L864 1197.5L854 1189L850.5 1165.5L837.5 1146L819.5 1136.5L809.5 1125.5L800.5 1115L791.5 1107L787.5 1102L781.5 1100L778.5 1097L766.5 1090L748.5 1079L745 1068H736.5L726.5 1057.5L707.5 1045.5L709 1034L718.5 1011.5L715.5 969.5L694 940L683 938.5L646 910V904.5L640 896.5L648 885L650 879.5H646L640 871.5L639.5 866.5H635L639.5 879.5L635 896.5L630.5 899L623 896.5L616.5 902H609.5L601 896.5L598.5 888L590 883L580 879.5L573 870.5H561.5L548.5 863.5V854.5L544.5 846L534 840.5L524.5 829.5L514.5 824L512 818H559.5L573 829.5L576.5 834.5L581 831.5L585 826.5H590V818H585L581 823L576.5 824L573 821.5V812.5L582 803.5L576.5 796L578 792.5V785L576.5 783V777.5L580 766L578 761L573 758.5V754.5L570.5 749.5H566L561.5 745L556 738V734L551 731.5L543 726L539.5 716.5L534 713.5L531 707.5L514.5 691.5H512L505.5 689L498 685.5L495 681L488.5 679L484.5 674L473.5 672V668L464.5 663V650L459 644V631.5L455 615L439.5 604L441 595.5L438 577.5L432 574L430 569L421.5 561.5V554.5V548L408.5 527L396 517L400 495.5L396 489L391 485L389 480.5L382.5 476L378.5 459.5L372.5 457L370.5 451.5L365 439.5V434.5V420.5L360 422L357 413.5V398.5L345.5 372.5L324 360Z" stroke="black"/>
</svg>
